<?xml version="1.0" encoding="UTF-8" standalone="no"?>
<!-- Created with Inkscape (http://www.inkscape.org/) -->

<svg
   xmlns:dc="http://purl.org/dc/elements/1.1/"
   xmlns:cc="http://creativecommons.org/ns#"
   xmlns:rdf="http://www.w3.org/1999/02/22-rdf-syntax-ns#"
   xmlns:svg="http://www.w3.org/2000/svg"
   xmlns="http://www.w3.org/2000/svg"
   xmlns:sodipodi="http://sodipodi.sourceforge.net/DTD/sodipodi-0.dtd"
   xmlns:inkscape="http://www.inkscape.org/namespaces/inkscape"
   width="200"
   height="50"
   id="svg10573"
   version="1.1"
   inkscape:version="0.91 r12937"
   sodipodi:docname="centos-logo-lightbg.svg"
   inkscape:export-filename="/home/tigert/git/cosmos-web/static/images/logo_small.png"
   inkscape:export-xdpi="90"
   inkscape:export-ydpi="90">
  <defs
     id="defs10575" />
  <sodipodi:namedview
     id="base"
     pagecolor="#ffffff"
     bordercolor="#666666"
     borderopacity="1.0"
     inkscape:pageopacity="0"
     inkscape:pageshadow="2"
     inkscape:zoom="1.2145"
     inkscape:cx="12.902352"
     inkscape:cy="-14.332429"
     inkscape:document-units="px"
     inkscape:current-layer="layer1"
     showgrid="false"
     fit-margin-top="0"
     fit-margin-left="0"
     fit-margin-right="0"
     fit-margin-bottom="0"
     inkscape:showpageshadow="false"
     borderlayer="true"
     showguides="true"
     inkscape:guide-bbox="true"
     inkscape:snap-page="true"
     inkscape:snap-bbox="true"
     inkscape:bbox-nodes="true"
     inkscape:snap-bbox-edge-midpoints="true"
     inkscape:snap-global="true">
    <inkscape:grid
       type="xygrid"
       id="grid4177"
       originx="0px"
       originy="0px" />
  </sodipodi:namedview>
  <metadata
     id="metadata10578"
     xml:space="default">
    <rdf:RDF>
      <cc:Work
         rdf:about="">
        <dc:format>image/svg+xml</dc:format>
        <dc:type
           rdf:resource="http://purl.org/dc/dcmitype/StillImage" />
        <dc:title />
      </cc:Work>
    </rdf:RDF>
  </metadata>
  <g
     inkscape:label="Layer 1"
     inkscape:groupmode="layer"
     id="layer1"
     transform="translate(711.53034,-2237.039)">
    <g
       xml:space="default"
       transform="matrix(0.69485395,0,0,0.69485395,-221.43917,698.53492)"
       style="font-size:52.86945343px;font-style:normal;font-weight:normal;line-height:832.99999237%;letter-spacing:0px;word-spacing:0px;fill:#262577;fill-opacity:1;stroke:none;font-family:Sans"
       id="text12404"
       inkscape:export-filename="/home/tigert/git/cosmos-web/static/images/use5531.png"
       inkscape:export-xdpi="90"
       inkscape:export-ydpi="90">
      <path
         xml:space="default"
         d="m -594.03802,2270.3323 -16.33666,0 q -2.48486,0 -4.91686,-0.6873 -4.70538,-1.4275 -7.45459,-6.5558 -2.48486,-4.6526 -2.48486,-10.8383 0,-5.9742 2.22051,-10.5739 2.432,-5.0754 6.9259,-6.9259 3.48939,-1.4274 7.13738,-1.4274 l 14.80344,0 0,7.0845 -15.38501,0 q -3.75373,0 -5.44555,4.0709 -1.32174,3.1722 -1.32174,8.3005 0,4.3353 1.69183,7.3489 1.95617,3.5422 5.49842,3.5422 l 15.06779,-0.053 0,6.7144 z"
         style="font-variant:normal;font-stretch:normal;fill:#262577;font-family:Denmark;-inkscape-font-specification:Denmark;fill-opacity:1"
         id="path4186"
         inkscape:connector-curvature="0" />
      <path
         d="m -566.21051,2270.4909 -12.90015,0 c -3.13692,0 -5.86851,-1.3394 -8.19476,-4.0181 -2.29101,-2.7139 -3.43652,-5.8332 -3.43652,-9.3579 0,-3.8419 1.25124,-7.155 3.75373,-9.9394 2.53773,-2.8197 5.35744,-4.2296 8.45912,-4.2296 l 12.26571,0 0,5.657 -8.98781,0 c -1.12788,0 -2.09715,0.1057 -2.90782,0.3172 -0.77542,0.1763 -1.49797,0.5464 -2.16765,1.1103 -1.23362,1.0574 -1.85043,2.6397 -1.85043,4.4372 l 15.86084,0 0,5.7099 -15.80797,0 c 0,0.8459 0.0881,1.4137 0.26435,2.0129 0.21148,0.5639 0.61681,1.1455 1.216,1.7447 0.59919,0.5639 1.30411,0.9516 2.11478,1.1631 0.84591,0.1762 1.86805,0.2643 3.06642,0.2643 l 9.25216,0 z"
         style="font-variant:normal;font-stretch:normal;fill:#262577;font-family:Denmark;-inkscape-font-specification:Denmark;fill-opacity:1"
         id="path4188"
         inkscape:connector-curvature="0"
         xml:space="default"
         sodipodi:nodetypes="cscscsccscccccccccscc" />
      <path
         d="m -535.44214,2270.3323 -7.34885,0 0,-18.0285 q 0,-0.6873 -0.31722,-1.216 -0.31722,-0.5816 -0.89878,-1.1103 -1.05739,-0.8987 -2.432,-0.8987 l -7.19024,0 0,21.2535 -7.34886,0 0,-27.3864 14.06328,0 q 3.75373,0 5.44555,0.423 2.64347,0.6344 4.22956,2.802 1.79756,2.5378 1.79756,5.5513 l 0,18.6101 z"
         style="font-variant:normal;font-stretch:normal;fill:#262577;font-family:Denmark;-inkscape-font-specification:Denmark;fill-opacity:1"
         id="path4190"
         inkscape:connector-curvature="0"
         xml:space="default" />
      <path
         d="m -513.2161,2248.6558 -7.13738,0 0,12.4243 c 0,1.1279 0.38771,2.0619 1.16313,2.8021 0.88116,0.7402 2.04429,1.1103 3.48939,1.1103 l 2.16764,0 0,5.3398 -6.82016,0 c -2.04428,0 -4.28897,-0.7402 -5.73407,-2.2205 -0.84591,-0.8812 -1.39223,-1.8505 -1.63895,-2.9079 -0.24673,-1.0573 -0.37009,-2.3086 -0.37009,-3.7537 l 0,-12.7944 -4.65251,0 0,-5.7099 4.65251,0 0,-9.6222 7.74311,0 0,9.6222 7.13738,0 z"
         style="font-variant:normal;font-stretch:normal;fill:#262577;font-family:Denmark;-inkscape-font-specification:Denmark;fill-opacity:1"
         id="path4192"
         inkscape:connector-curvature="0"
         xml:space="default"
         sodipodi:nodetypes="ccscsccsccsccccccccc" />
      <path
         d="m -469.40911,2251.7751 q 0,10.7854 -5.97424,15.4379 -4.86399,3.7537 -14.16902,3.7537 -10.30954,0 -15.2264,-4.3353 -5.39268,-4.7582 -5.39268,-15.2793 0,-8.6177 4.81112,-13.4288 5.23407,-5.2341 15.64935,-5.2341 11.47268,0 16.17806,5.0226 4.12381,4.4411 4.12381,14.0633 z m -9.41076,-0.2115 q 0,-5.4455 -2.5906,-8.6706 -2.90782,-3.5951 -8.61772,-3.5951 -5.60416,0 -8.45912,3.8595 -2.37912,3.225 -2.37912,8.4062 0,5.9743 1.9033,8.8292 2.64347,3.9652 9.78085,3.9652 6.02712,0 8.45911,-3.8594 1.9033,-3.0136 1.9033,-8.935 z"
         style="font-variant:normal;font-stretch:normal;fill:#262577;font-family:Denmark;-inkscape-font-specification:Denmark;fill-opacity:1"
         id="path4194"
         inkscape:connector-curvature="0"
         xml:space="default" />
      <path
         d="m -426.26351,2258.8596 q 0,4.864 -3.22503,8.1948 -3.22504,3.3307 -8.19477,3.3307 l -26.17038,-0.053 0,-6.6616 21.57074,0 q 2.16765,0 3.64799,-1.0045 1.69183,-1.1631 1.69183,-3.1722 0,-4.7053 -6.66156,-4.7053 l -10.8911,0 q -4.70538,0 -8.24764,-2.9079 -3.54225,-2.9078 -3.54225,-7.4017 0,-4.9697 3.43651,-8.0361 3.48939,-3.1193 9.14642,-3.1193 l 25.00725,0 0,6.3443 -22.04656,0 q -1.48035,0 -3.01356,1.2689 -1.48035,1.216 -1.48035,2.9078 0,1.9033 1.42748,3.225 1.48034,1.2689 3.54225,1.2689 l 12.00137,0 q 5.60416,0 8.77633,2.9078 3.22503,2.855 3.22503,7.6132 z"
         style="font-variant:normal;font-stretch:normal;fill:#262577;font-family:Denmark;-inkscape-font-specification:Denmark;fill-opacity:1"
         id="path4196"
         inkscape:connector-curvature="0"
         xml:space="default" />
    </g>
    <rect
       inkscape:transform-center-x="12.562506"
       style="color:#000000;color-interpolation:sRGB;color-interpolation-filters:linearRGB;fill:#932279;fill-opacity:1;fill-rule:nonzero;stroke:#ffffff;stroke-width:1.00005853;stroke-miterlimit:4;stroke-dasharray:none;marker:none;visibility:visible;display:inline;overflow:visible;enable-background:accumulate;clip-rule:nonzero;color-rendering:auto;image-rendering:auto;shape-rendering:auto;text-rendering:auto"
       id="rect4180"
       width="14.086009"
       height="14.086009"
       x="2096.5435"
       y="-1127.9958"
       transform="matrix(-0.71249676,0.7016754,-0.71249676,-0.7016754,0,0)"
       xml:space="default" />
    <rect
       transform="matrix(-0.70494576,-0.70926121,0.70494576,-0.70926121,0,0)"
       y="-2081.5786"
       x="-1105.6205"
       height="14.023519"
       width="14.023519"
       id="rect4182"
       style="color:#000000;color-interpolation:sRGB;color-interpolation-filters:linearRGB;fill:#efa724;fill-opacity:1;fill-rule:nonzero;stroke:#ffffff;stroke-width:1.0000093;stroke-miterlimit:4;stroke-dasharray:none;marker:none;visibility:visible;display:inline;overflow:visible;enable-background:accumulate;clip-rule:nonzero;color-rendering:auto;image-rendering:auto;shape-rendering:auto;text-rendering:auto"
       inkscape:transform-center-x="-0.00019222452"
       inkscape:transform-center-y="-12.450121"
       xml:space="default" />
    <rect
       transform="matrix(-0.71249676,0.7016754,-0.71249676,-0.7016754,0,0)"
       y="-1144.9683"
       x="2096.6753"
       height="14.086009"
       width="14.086009"
       id="rect4184"
       style="color:#000000;color-interpolation:sRGB;color-interpolation-filters:linearRGB;fill:#9ccd2a;fill-opacity:1;fill-rule:nonzero;stroke:#ffffff;stroke-width:1.00005853;stroke-miterlimit:4;stroke-dasharray:none;marker:none;visibility:visible;display:inline;overflow:visible;enable-background:accumulate;clip-rule:nonzero;color-rendering:auto;image-rendering:auto;shape-rendering:auto;text-rendering:auto"
       inkscape:transform-center-x="12.562506"
       xml:space="default" />
    <rect
       inkscape:transform-center-y="-12.450121"
       inkscape:transform-center-x="-0.00019222452"
       style="color:#000000;color-interpolation:sRGB;color-interpolation-filters:linearRGB;fill:#262577;fill-opacity:1;fill-rule:nonzero;stroke:#ffffff;stroke-width:1.0000093;stroke-miterlimit:4;stroke-dasharray:none;marker:none;visibility:visible;display:inline;overflow:visible;enable-background:accumulate;clip-rule:nonzero;color-rendering:auto;image-rendering:auto;shape-rendering:auto;text-rendering:auto"
       id="rect4186"
       width="14.023519"
       height="14.023519"
       x="-1122.5913"
       y="-2081.5288"
       transform="matrix(-0.70494576,-0.70926121,0.70494576,-0.70926121,0,0)"
       xml:space="default" />
    <rect
       style="color:#000000;color-interpolation:sRGB;color-interpolation-filters:linearRGB;fill:#fce94f;stroke:none;stroke-width:0.99999994;marker:none;visibility:visible;display:inline;overflow:visible;enable-background:accumulate;clip-rule:nonzero;color-rendering:auto;image-rendering:auto;shape-rendering:auto;text-rendering:auto"
       id="rect4188"
       width="13.499309"
       height="13.437353"
       x="-703.53033"
       y="2247.0137"
       xml:space="default" />
    <rect
       y="2264.5391"
       x="-686.03027"
       height="13.499937"
       width="13.400747"
       id="rect4190"
       style="color:#000000;color-interpolation:sRGB;color-interpolation-filters:linearRGB;fill:#efa724;fill-opacity:1;stroke:none;stroke-width:0.99999994;marker:none;visibility:visible;display:inline;overflow:visible;enable-background:accumulate;clip-rule:nonzero;color-rendering:auto;image-rendering:auto;shape-rendering:auto;text-rendering:auto"
       xml:space="default" />
    <rect
       style="color:#000000;color-interpolation:sRGB;color-interpolation-filters:linearRGB;fill:#932279;fill-opacity:1;stroke:none;stroke-width:0.99999988;marker:none;visibility:visible;display:inline;overflow:visible;enable-background:accumulate;clip-rule:nonzero;color-rendering:auto;image-rendering:auto;shape-rendering:auto;text-rendering:auto"
       id="rect4192"
       width="13.445917"
       height="13.431926"
       x="-685.97626"
       y="2247.1069"
       xml:space="default" />
    <rect
       y="2246.5391"
       x="-704.03033"
       height="13.917932"
       width="13.999353"
       id="rect4168"
       style="color:#000000;color-interpolation:sRGB;color-interpolation-filters:linearRGB;fill:#9ccd2a;fill-opacity:1;stroke:#ffffff;stroke-width:1;stroke-miterlimit:4;stroke-dasharray:none;marker:none;visibility:visible;display:inline;overflow:visible;enable-background:accumulate;clip-rule:nonzero;color-rendering:auto;image-rendering:auto;shape-rendering:auto;text-rendering:auto"
       xml:space="default" />
    <rect
       style="color:#000000;color-interpolation:sRGB;color-interpolation-filters:linearRGB;fill:none;stroke:#ffffff;stroke-width:0.99999988;stroke-miterlimit:4;stroke-dasharray:none;marker:none;visibility:visible;display:inline;overflow:visible;enable-background:accumulate;clip-rule:nonzero;color-rendering:auto;image-rendering:auto;shape-rendering:auto;text-rendering:auto"
       id="rect4170"
       width="13.91354"
       height="13.999938"
       x="-686.03027"
       y="2264.5391"
       xml:space="default" />
    <rect
       y="2246.6208"
       x="-685.97986"
       height="13.917932"
       width="13.949519"
       id="rect4172"
       style="color:#000000;color-interpolation:sRGB;color-interpolation-filters:linearRGB;fill:none;stroke:#ffffff;stroke-width:1;stroke-miterlimit:4;stroke-dasharray:none;marker:none;visibility:visible;display:inline;overflow:visible;enable-background:accumulate;clip-rule:nonzero;color-rendering:auto;image-rendering:auto;shape-rendering:auto;text-rendering:auto"
       xml:space="default" />
    <rect
       style="color:#000000;color-interpolation:sRGB;color-interpolation-filters:linearRGB;fill:#262577;fill-opacity:1;stroke:#ffffff;stroke-width:1;stroke-miterlimit:4;stroke-dasharray:none;marker:none;visibility:visible;display:inline;overflow:visible;enable-background:accumulate;clip-rule:nonzero;color-rendering:auto;image-rendering:auto;shape-rendering:auto;text-rendering:auto"
       id="rect4174"
       width="13.99878"
       height="13.998755"
       x="-704.02917"
       y="2264.5396"
       xml:space="default" />
    <rect
       transform="matrix(-0.71249676,0.7016754,-0.71249676,-0.7016754,0,0)"
       y="-1127.9958"
       x="2096.5435"
       height="14.086009"
       width="14.086009"
       id="rect4208"
       style="color:#000000;color-interpolation:sRGB;color-interpolation-filters:linearRGB;fill:none;stroke:#ffffff;stroke-width:1.00005853;stroke-miterlimit:4;stroke-dasharray:none;marker:none;visibility:visible;display:inline;overflow:visible;enable-background:accumulate;clip-rule:nonzero;color-rendering:auto;image-rendering:auto;shape-rendering:auto;text-rendering:auto"
       inkscape:transform-center-x="12.562506"
       xml:space="default" />
    <rect
       inkscape:transform-center-y="-12.450121"
       inkscape:transform-center-x="-0.00019222452"
       style="color:#000000;color-interpolation:sRGB;color-interpolation-filters:linearRGB;fill:none;stroke:#ffffff;stroke-width:1.0000093;stroke-miterlimit:4;stroke-dasharray:none;marker:none;visibility:visible;display:inline;overflow:visible;enable-background:accumulate;clip-rule:nonzero;color-rendering:auto;image-rendering:auto;shape-rendering:auto;text-rendering:auto"
       id="rect4210"
       width="14.023519"
       height="14.023519"
       x="-1105.6202"
       y="-2081.5786"
       transform="matrix(-0.70494576,-0.70926121,0.70494576,-0.70926121,0,0)"
       xml:space="default" />
    <rect
       inkscape:transform-center-x="12.562506"
       style="color:#000000;color-interpolation:sRGB;color-interpolation-filters:linearRGB;fill:none;stroke:#ffffff;stroke-width:1.00005853;stroke-miterlimit:4;stroke-dasharray:none;marker:none;visibility:visible;display:inline;overflow:visible;enable-background:accumulate;clip-rule:nonzero;color-rendering:auto;image-rendering:auto;shape-rendering:auto;text-rendering:auto"
       id="rect4212"
       width="14.086009"
       height="14.086009"
       x="2096.6753"
       y="-1144.9683"
       transform="matrix(-0.71249676,0.7016754,-0.71249676,-0.7016754,0,0)"
       xml:space="default" />
    <rect
       transform="matrix(-0.70494576,-0.70926121,0.70494576,-0.70926121,0,0)"
       y="-2081.5288"
       x="-1122.5912"
       height="14.023519"
       width="14.023519"
       id="rect4214"
       style="color:#000000;color-interpolation:sRGB;color-interpolation-filters:linearRGB;fill:none;stroke:#ffffff;stroke-width:1.0000093;stroke-miterlimit:4;stroke-dasharray:none;marker:none;visibility:visible;display:inline;overflow:visible;enable-background:accumulate;clip-rule:nonzero;color-rendering:auto;image-rendering:auto;shape-rendering:auto;text-rendering:auto"
       inkscape:transform-center-x="-0.00019222452"
       inkscape:transform-center-y="-12.450121"
       xml:space="default" />
  </g>
</svg>
